<svg width="38" height="38" viewBox="0 0 38 38" fill="none" xmlns="http://www.w3.org/2000/svg">
<path d="M2.28109 37.125V31.25H8.73942L3.42692 14.8979C2.48942 14.4083 1.71685 13.6902 1.10921 12.7437C0.501573 11.7972 0.197754 10.7854 0.197754 9.7083C0.197754 8.07635 0.805393 6.6892 2.02067 5.54684C3.23595 4.40448 4.71164 3.8333 6.44775 3.8333C7.80192 3.8333 9.00852 4.20048 10.0675 4.93486C11.1266 5.66923 11.8644 6.6076 12.2811 7.74996H18.9478V5.79163C18.9478 5.23677 19.1474 4.77166 19.5467 4.39632C19.946 4.02097 20.4408 3.8333 21.0311 3.8333C21.3436 3.8333 21.6474 3.89857 21.9425 4.02913C22.2377 4.15969 22.4894 4.35552 22.6978 4.61663L26.2394 1.4833C26.5519 1.18955 26.9252 1.00187 27.3592 0.920276C27.7932 0.838679 28.2186 0.895797 28.6353 1.09163L36.7603 4.61663C37.1769 4.81246 37.4634 5.09805 37.6196 5.4734C37.7759 5.84875 37.7672 6.21594 37.5936 6.57496C37.3853 6.96663 37.0814 7.21958 36.6821 7.33382C36.2828 7.44805 35.8922 7.42357 35.5103 7.26038L28.0103 4.02913L23.1144 8.33746V11.0791L28.0103 15.2895L35.5103 12.0583C35.8922 11.8951 36.2915 11.8788 36.7082 12.0093C37.1248 12.1399 37.42 12.3847 37.5936 12.7437C37.8019 13.1354 37.8193 13.5107 37.6457 13.8698C37.4721 14.2288 37.1769 14.5062 36.7603 14.702L28.6353 18.325C28.2186 18.5208 27.7932 18.5779 27.3592 18.4963C26.9252 18.4147 26.5519 18.227 26.2394 17.9333L22.6978 14.8C22.4894 14.9958 22.2377 15.1753 21.9425 15.3385C21.6474 15.5017 21.3436 15.5833 21.0311 15.5833C20.4408 15.5833 19.946 15.3956 19.5467 15.0203C19.1474 14.6449 18.9478 14.1798 18.9478 13.625V11.6666H12.2811C12.1769 11.9277 12.0641 12.1725 11.9425 12.401C11.821 12.6295 11.6561 12.8743 11.4478 13.1354L21.8644 31.25H29.3644V37.125H2.28109ZM6.44775 11.6666C7.03803 11.6666 7.53282 11.479 7.93213 11.1036C8.33144 10.7283 8.53109 10.2632 8.53109 9.7083C8.53109 9.15344 8.33144 8.68833 7.93213 8.31298C7.53282 7.93764 7.03803 7.74996 6.44775 7.74996C5.85748 7.74996 5.36268 7.93764 4.96338 8.31298C4.56407 8.68833 4.36442 9.15344 4.36442 9.7083C4.36442 10.2632 4.56407 10.7283 4.96338 11.1036C5.36268 11.479 5.85748 11.6666 6.44775 11.6666ZM13.0103 31.25H17.0728L8.11442 15.5833H7.90609L13.0103 31.25Z" fill="black"/>
</svg>
